<svg width="20" height="20" viewBox="0 0 20 20" fill="none" xmlns="http://www.w3.org/2000/svg">
<g clip-path="url(#clip0_621_1666)">
<path d="M9.99214 19.9561C15.4414 19.9561 19.9531 15.4346 19.9531 9.99512C19.9531 4.5459 15.4316 0.0341797 9.98237 0.0341797C4.54292 0.0341797 0.0311966 4.5459 0.0311966 9.99512C0.0311966 15.4346 4.55268 19.9561 9.99214 19.9561ZM9.99214 18.2959C5.38276 18.2959 1.70112 14.6045 1.70112 9.99512C1.70112 5.38574 5.373 1.69434 9.98237 1.69434C14.5917 1.69434 18.2929 5.38574 18.2929 9.99512C18.2929 14.6045 14.6015 18.2959 9.99214 18.2959Z" fill="#8738FF"/>
<path d="M14.5429 11.4014C15.3144 11.4014 15.9589 10.7666 15.9589 9.98535C15.9589 9.2041 15.3144 8.56934 14.5429 8.56934C13.7617 8.56934 13.1269 9.2041 13.1269 9.98535C13.1269 10.7666 13.7617 11.4014 14.5429 11.4014Z" fill="#8738FF"/>
<path d="M9.98237 11.4014C10.7636 11.4014 11.3984 10.7666 11.3984 9.98535C11.3984 9.2041 10.7636 8.56934 9.98237 8.56934C9.20112 8.56934 8.56636 9.2041 8.56636 9.98535C8.56636 10.7666 9.20112 11.4014 9.98237 11.4014Z" fill="#8738FF"/>
<path d="M5.43159 11.4014C6.20308 11.4014 6.83784 10.7666 6.83784 9.98535C6.83784 9.2041 6.19331 8.56934 5.43159 8.56934C4.65034 8.56934 4.01558 9.2041 4.01558 9.98535C4.01558 10.7666 4.65034 11.4014 5.43159 11.4014Z" fill="#8738FF"/>
</g>
<defs>
<clipPath id="clip0_621_1666">
<rect width="19.9219" height="19.9316" fill="white" transform="translate(0.0311966 0.0341797)"/>
</clipPath>
</defs>
</svg>
