<svg width="25" height="24" viewBox="0 0 25 24" fill="none" xmlns="http://www.w3.org/2000/svg">
<path d="M24.2612 12.2878C24.2612 11.4774 24.1828 10.6408 24.0521 9.85649H12.732V14.4839H19.2155C18.9541 15.974 18.0914 17.2812 16.8104 18.1178L20.6796 21.1242C22.954 19.0066 24.2612 15.9217 24.2612 12.2878Z" fill="#4280EF"/>
<path d="M12.732 24C15.9738 24 18.6927 22.9281 20.6796 21.0981L16.8104 18.1178C15.7385 18.8498 14.3529 19.2681 12.732 19.2681C9.59481 19.2681 6.95434 17.1505 5.98704 14.327L2.01326 17.3857C4.05243 21.438 8.18307 24 12.732 24Z" fill="#34A353"/>
<path d="M5.98704 14.3008C5.49031 12.8107 5.49031 11.1898 5.98704 9.69962L2.01326 6.61471C0.313941 10.0133 0.313941 14.0133 2.01326 17.3857L5.98704 14.3008Z" fill="#F6B704"/>
<path d="M12.732 4.75854C14.4313 4.73239 16.1045 5.38598 17.3332 6.56242L20.758 3.11151C18.5881 1.07233 15.7123 -0.025687 12.732 0.000456276C8.18307 0.000456276 4.05243 2.5625 2.01326 6.61471L5.98704 9.69962C6.95434 6.85 9.59481 4.75854 12.732 4.75854Z" fill="#E54335"/>
</svg>
